# xmcd CD database file
#
# Track frame offsets:
#	150
#	14475
#	27147
#	45408
#	66823
#	78749
#
# Disc length: 1271 seconds
#
# Revision: 1
# Processed by: cddbd v1.4PL0 Copyright (c) Steve Scherf et al.
# Submitted via: jetAudio 5
#
DISCID=4304f506
DTITLE=Adam Brand - Built For Speed Limited Edition Bonus CD
DYEAR=1900
DGENRE=
TTITLE0=Beating Around the Bush
TTITLE1=I Did What?
TTITLE2=Good Things In Life
TTITLE3=You're A Revhead
TTITLE4=Dirt Track Cowboy
TTITLE5=I Still Call Australia Home
EXTD=
EXTT0=
EXTT1=
EXTT2=
EXTT3=
EXTT4=
EXTT5=
PLAYORDER=
